<svg width="24" height="20" viewBox="0 0 24 20" fill="none" xmlns="http://www.w3.org/2000/svg">
<path d="M21.1304 3.73903H18.6261L17.2435 1.65208C16.7217 0.869468 15.8087 0.399902 14.8696 0.399902H9.13043C8.1913 0.399902 7.27826 0.869468 6.75652 1.65208L5.37391 3.73903H2.86957C1.27826 3.73903 0 5.01729 0 6.6086V16.7303C0 18.3216 1.27826 19.5999 2.86957 19.5999H21.1304C22.7217 19.5999 24 18.3216 24 16.7303V6.6086C24 5.01729 22.7217 3.73903 21.1304 3.73903ZM12 17.2521C8.42609 17.2521 5.53043 14.3564 5.53043 10.7825C5.53043 7.2086 8.42609 4.33903 12 4.33903C15.5739 4.33903 18.4696 7.23468 18.4696 10.8086C18.4696 14.3564 15.5739 17.2521 12 17.2521ZM20.7652 7.78251C20.7391 7.78251 20.713 7.78251 20.6609 7.78251H19.6174C19.1478 7.75642 18.7826 7.36512 18.8087 6.89555C18.8348 6.45208 19.1739 6.11295 19.6174 6.08686H20.6609C21.1304 6.06077 21.5217 6.42599 21.5478 6.89555C21.5739 7.36512 21.2348 7.75642 20.7652 7.78251Z" fill="#262626"/>
</svg>
